# File created by Blade
# Date/Time:  Mon Sep 29 17:58:21 2014
# Frame Rate: 120.000 fps
#------------------------------------------------------
:FULLY-SPECIFIED
:DEGREES
1164
root 0.010862 2.947169 -8.795523 -45.202997 4.788194 0.785794
Spine 46.493181 4.318566 6.932389
Head -2.141593 -20.335967 1.038038
LeftShoulder -1.832006 25.764053 18.703827
LeftArm 2.590335 44.507063 -87.765638
LeftForeArm -19.194676 0.000000 33.344104
LeftHand -48.476966 0.000000 83.436531
LeftHandThumb1 -26.253704 0.000000 33.147579
RightShoulder -11.273832 4.859862 -25.028750
RightArm -39.770056 -31.547217 108.943046
RightForeArm 12.969865 -0.000000 34.849392
RightHand -10.191859 -0.000000 -63.485127
RightHandThumb1 -24.326973 -0.000000 -32.862282
LeftUpLeg -84.322643 14.698847 46.862611
LeftLeg 144.552995 -0.000000 -0.000000
LeftFoot -19.879206 -4.007557 1.680798
LeftToeBase 16.992822 -0.000000 -0.000000
RightUpLeg -87.638746 -16.248614 -40.083794
RightLeg 137.662689 -0.000000 -0.000000
RightFoot -3.824389 -11.343270 -17.934880
RightToeBase -2.294010 -0.000000 0.000000
1165
root 0.008845 2.952143 -8.895991 -45.376813 4.844904 0.861813
Spine 46.175557 4.359397 6.545573
Head -1.824064 -19.924475 0.964287
LeftShoulder -1.932406 25.728035 18.879892
LeftArm 2.208618 44.389391 -87.907216
LeftForeArm -18.681554 -0.000000 34.055116
LeftHand -48.591245 -0.000000 85.318457
LeftHandThumb1 -26.253704 0.000000 33.147579
RightShoulder -11.271344 4.916869 -25.220008
RightArm -39.852187 -31.786122 109.127250
RightForeArm 12.924677 0.000000 35.343713
RightHand -10.135302 0.000000 -62.946293
RightHandThumb1 -24.326973 -0.000000 -32.862282
LeftUpLeg -84.893446 14.789826 45.737817
LeftLeg 143.648919 -0.000000 -0.000000
LeftFoot -19.697617 -3.418081 1.655357
LeftToeBase 17.026461 -0.000000 -0.000000
RightUpLeg -88.221537 -16.181267 -38.698069
RightLeg 135.935451 -0.000000 -0.000000
RightFoot -3.400589 -11.553331 -17.781059
RightToeBase -1.501739 -0.000000 0.000000
1166
root 0.000890 2.955476 -8.992788 -45.583034 4.810142 0.972321
Spine 45.935757 4.397433 6.175937
Head -1.578297 -19.473678 0.889122
LeftShoulder -2.040599 25.727731 19.052335
LeftArm 1.843662 44.367338 -88.054814
LeftForeArm -18.548030 -0.000000 34.842539
LeftHand -48.353981 -0.000000 87.160626
LeftHandThumb1 -26.253704 0.000000 33.147579
RightShoulder -11.272448 4.949040 -25.435673
RightArm -39.849232 -31.987262 109.228045
RightForeArm 12.777586 -0.000000 35.914749
RightHand -10.079325 -0.000000 -62.474792
RightHandThumb1 -24.326973 -0.000000 -32.862282
LeftUpLeg -85.367607 14.994742 44.631574
LeftLeg 142.659871 -0.000000 -0.000000
LeftFoot -19.509658 -2.872582 1.825365
LeftToeBase 16.774495 -0.000000 -0.000000
RightUpLeg -88.843367 -15.994672 -37.184766
RightLeg 134.147878 -0.000000 -0.000000
RightFoot -2.995585 -11.886823 -17.260509
RightToeBase -1.343463 -0.000000 0.000000
1167
root 0.009819 2.962860 -9.088621 -45.786693 4.809491 1.109311
Spine 45.699941 4.455260 5.893057
Head -1.280564 -19.156079 0.762508
LeftShoulder -1.979151 25.955109 19.264619
LeftArm 1.846851 44.283539 -88.050289
LeftForeArm -18.404905 -0.000000 35.639404
LeftHand -48.683438 -0.000000 88.483249
LeftHandThumb1 -26.253704 0.000000 33.147579
RightShoulder -11.405481 4.935549 -25.632699
RightArm -39.868246 -32.058611 109.155460
RightForeArm 12.523037 -0.000000 36.609808
RightHand -10.005842 -0.000000 -61.936725
RightHandThumb1 -24.326973 -0.000000 -32.862282
LeftUpLeg -85.911807 15.153111 43.352360
LeftLeg 141.624057 -0.000000 -0.000000
LeftFoot -19.143139 -2.490451 1.524556
LeftToeBase 16.326348 -0.000000 -0.000000
RightUpLeg -89.396726 -15.856259 -35.690054
RightLeg 132.267218 -0.000000 -0.000000
RightFoot -2.475589 -12.337239 -16.593345
RightToeBase -0.394784 -0.000000 0.000000
1168
root 0.001696 2.965706 -9.173366 -45.997651 4.794435 1.196170
Spine 45.443503 4.420883 5.543660
Head -0.963480 -18.767193 0.695402
LeftShoulder -2.006556 26.220110 19.613415
LeftArm 1.852668 44.439877 -88.154429
LeftForeArm -18.776677 -0.000000 36.257157
LeftHand -47.972308 -0.000000 89.370214
LeftHandThumb1 -26.253704 0.000000 33.147579
RightShoulder -11.436624 4.906430 -25.776258
RightArm -39.882933 -32.209833 109.119428
RightForeArm 12.253606 -0.000000 37.322509
RightHand -9.926510 0.000000 -61.484950
RightHandThumb1 -24.326973 -0.000000 -32.862282
LeftUpLeg -86.495225 15.392413 41.979966
LeftLeg 140.472052 -0.000000 -0.000000
LeftFoot -18.692092 -1.952763 1.508713
LeftToeBase 15.956827 -0.000000 -0.000000
RightUpLeg -89.937302 -15.680774 -34.109423
RightLeg 130.424159 -0.000000 -0.000000
RightFoot -1.767744 -12.873712 -15.752607
RightToeBase -0.153617 -0.000000 0.000000
1169
root -0.011778 2.967771 -9.251665 -46.177974 4.771700 1.277522
Spine 45.140904 4.373119 5.259252
Head -0.619181 -18.499987 0.422405
LeftShoulder -1.987856 26.380383 19.954397
LeftArm 1.666320 44.601862 -88.355502
LeftForeArm -18.883360 -0.000000 36.910136
LeftHand -47.760404 -0.000000 89.646135
LeftHandThumb1 -26.253704 0.000000 33.147579
RightShoulder -11.389362 4.672137 -25.850157
RightArm -39.760579 -32.279980 108.924839
RightForeArm 11.907312 -0.000000 38.152437
RightHand -9.918746 -0.000000 -61.129141
RightHandThumb1 -24.326973 -0.000000 -32.862282
LeftUpLeg -87.124750 15.685394 40.550501
LeftLeg 139.244447 -0.000000 -0.000000
LeftFoot -18.055353 -1.588686 1.491811
LeftToeBase 15.612160 -0.000000 -0.000000
RightUpLeg -90.532230 -15.545692 -32.427124
RightLeg 128.571839 -0.000000 -0.000000
RightFoot -0.898792 -13.488503 -14.484326
RightToeBase 0.367024 -0.000000 -0.000000
